<svg id="Capa_1" data-name="Capa 1" xmlns="http://www.w3.org/2000/svg" viewBox="0 0 236.58 38.4"><path d="M29.18.87c-7.73,0-15.79,1.73-23.92,4A4.15,4.15,0,0,0,2.68,6.58,6.7,6.7,0,0,0,1.86,9a64.08,64.08,0,0,0-.53,13.59,6.82,6.82,0,0,0,.72,3.21,3.68,3.68,0,0,0,2.56,1.48c1.41.2,2.82.38,4.23.52l-.31,8.7a1.88,1.88,0,0,0,.71,1.6,2.24,2.24,0,0,0,1.22.44,2.43,2.43,0,0,0,2.37-1.25,31.59,31.59,0,0,1,6.32-8.9,199.33,199.33,0,0,0,20.48-.74,5.22,5.22,0,0,0,4.67-3.75c1.36-4.23,1.57-9.45,1.72-14.73a6.76,6.76,0,0,0-2-5.24A10.6,10.6,0,0,0,40,2.2,51.92,51.92,0,0,0,29.18.87ZM39.47,4.18a9.5,9.5,0,0,1,3.31,1.33A4.22,4.22,0,0,1,44,9.19c-.14,5.12-.39,10.09-1.55,13.86a3.38,3.38,0,0,1-3,2.56,193.33,193.33,0,0,1-20.71.73,1,1,0,0,0-.76.31A33.8,33.8,0,0,0,11,36.32a.39.39,0,0,1-.32.18.15.15,0,0,1-.14-.15l.31-9.43a1,1,0,0,0-.9-1.05c-1.7-.16-3.38-.37-5.06-.62-.73-.11-1-.31-1.2-.61a5.2,5.2,0,0,1-.36-2.13,62.9,62.9,0,0,1,.49-13.1A6,6,0,0,1,4.4,7.65a2.37,2.37,0,0,1,1.65-.9c8-2.2,15.74-3.84,23.06-3.85A49.84,49.84,0,0,1,39.47,4.18ZM12,12.27a3.52,3.52,0,0,0-.14,4.29,2.92,2.92,0,0,0,2,1.24,3.64,3.64,0,0,0,2.53-.86,3.56,3.56,0,0,0,.46-4.71A2.83,2.83,0,0,0,14.59,11,3.28,3.28,0,0,0,12,12.27ZM23.84,11.2a3.28,3.28,0,0,0-2.51,1.6,3.37,3.37,0,0,0-.48,3.25c1,2.2,4.28,2.17,5.6-.06a3.11,3.11,0,0,0,0-3.06,3,3,0,0,0-2.13-1.7A1.94,1.94,0,0,0,23.84,11.2Zm9.63.2a3.89,3.89,0,0,0-1,.11A3.2,3.2,0,0,0,30.19,15a3.42,3.42,0,0,0,1.21,2.31,3.47,3.47,0,0,0,2.88.62A3.1,3.1,0,0,0,36.6,15.6a3.17,3.17,0,0,0-.41-2.81,3.47,3.47,0,0,0-2.72-1.39ZM14.5,13a.71.71,0,0,1,.64.36,1.64,1.64,0,0,1-.13,2c-.44.39-.72.42-.92.39a.88.88,0,0,1-.57-.41,1.53,1.53,0,0,1,0-1.81,1.48,1.48,0,0,1,1-.54Zm9.49.22a1.62,1.62,0,0,1,.67.63,1,1,0,0,1,0,1.07,1.23,1.23,0,0,1-2,.29A2,2,0,0,1,23,13.92c.34-.51.76-.7,1-.67ZM34.55,14a1.87,1.87,0,0,1,.1,1.08,1,1,0,0,1-.78.81,1.33,1.33,0,0,1-1.2-.21,1.38,1.38,0,0,1-.46-.92c-.09-.92.24-1.13.77-1.27A1.56,1.56,0,0,1,34.55,14Z" transform="translate(-1.22 -0.26)" style="fill:#ff52c1"/><path d="M55.81,5a1.15,1.15,0,0,1,.29-.7A.85.85,0,0,1,56.8,4h6.82a1.2,1.2,0,0,1,.72.28A.87.87,0,0,1,64.7,5V15.91H76.12V5a1,1,0,0,1,1-1h6.73a1.38,1.38,0,0,1,.81.23A.81.81,0,0,1,85,5V37.12a.94.94,0,0,1-.3.76,1.16,1.16,0,0,1-.78.25h-6.8a1.08,1.08,0,0,1-.75-.25,1,1,0,0,1-.29-.76v-13H64.7v13a.93.93,0,0,1-.31.75,1.21,1.21,0,0,1-.84.26H56.8c-.65,0-1-.3-1-.89Zm62.87,32.72a1.31,1.31,0,0,1-.63.32,2.65,2.65,0,0,1-.63.07H114a1.58,1.58,0,0,1-.71-.15,1.54,1.54,0,0,1-.51-.4,2.53,2.53,0,0,1-.34-.57,5.3,5.3,0,0,1-.23-.67l-.71-2.94a12.42,12.42,0,0,1-1,1.62,9,9,0,0,1-1.67,1.7,9.24,9.24,0,0,1-2.41,1.33,9,9,0,0,1-3.22.54,10.82,10.82,0,0,1-8.4-3.77,12.6,12.6,0,0,1-2.33-4.08,14.77,14.77,0,0,1-.83-5v-15A2,2,0,0,1,92,9.4,1.49,1.49,0,0,1,93.18,9h5.3a2.07,2.07,0,0,1,1.36.33,1.73,1.73,0,0,1,.37,1.3v15a4.06,4.06,0,0,0,.45,1.87A5.63,5.63,0,0,0,101.84,29,5.71,5.71,0,0,0,103.51,30a4.85,4.85,0,0,0,1.89.39,4.23,4.23,0,0,0,1.71-.39,6.25,6.25,0,0,0,1.64-1A6,6,0,0,0,110,27.46a3.89,3.89,0,0,0,.48-1.87V10.65a2.16,2.16,0,0,1,.15-.78,1.26,1.26,0,0,1,.45-.6,1.83,1.83,0,0,1,.56-.25,2.22,2.22,0,0,1,.61-.07h5.19a1.87,1.87,0,0,1,1.43.48,1.85,1.85,0,0,1,.43,1.29V36.43a1.73,1.73,0,0,1-.19.81,1.48,1.48,0,0,1-.54.57Zm26.69-3.17c-.42.42-.87.86-1.37,1.33a14.48,14.48,0,0,1-1.64,1.34,9.64,9.64,0,0,1-1.93,1,6.11,6.11,0,0,1-2.23.4,14,14,0,0,1-5.76-1.17,13.76,13.76,0,0,1-4.53-3.21,14.7,14.7,0,0,1-3-4.79,16.1,16.1,0,0,1-1.07-5.93A16.08,16.08,0,0,1,125,17.62a14.87,14.87,0,0,1,3-4.78,13.7,13.7,0,0,1,4.53-3.19,14.15,14.15,0,0,1,5.76-1.16,6.83,6.83,0,0,1,2.31.37,8.41,8.41,0,0,1,1.9.94A9.5,9.5,0,0,1,144,11.1c.48.48.94,1,1.37,1.41V2a1.83,1.83,0,0,1,.44-1.24,1.71,1.71,0,0,1,1.35-.51h5.17a1.65,1.65,0,0,1,.63.13,2.06,2.06,0,0,1,.61.35,2.06,2.06,0,0,1,.45.56,1.52,1.52,0,0,1,.17.71V36.36q0,1.77-1.86,1.77h-4.51a1.92,1.92,0,0,1-.71-.11,1.23,1.23,0,0,1-.42-.33,2.05,2.05,0,0,1-.31-.56l-.35-.77-.66-1.79Zm-13.22-11a8.3,8.3,0,0,0,.47,2.84A6.71,6.71,0,0,0,134,28.69a6.35,6.35,0,0,0,2.1,1.53,6.55,6.55,0,0,0,2.72.56,7.3,7.3,0,0,0,2.77-.53,7.18,7.18,0,0,0,2.27-1.46,7.33,7.33,0,0,0,1.55-2.19,7.14,7.14,0,0,0,.65-2.71v-.33a7.1,7.1,0,0,0-.55-2.8A7.29,7.29,0,0,0,144,18.42a7.11,7.11,0,0,0-2.3-1.6,7,7,0,0,0-2.86-.59A6.25,6.25,0,0,0,134,18.42a7.3,7.3,0,0,0-1.35,2.34,8.62,8.62,0,0,0-.47,2.8Zm48.72,11c-.41.42-.87.86-1.37,1.33a12.9,12.9,0,0,1-1.64,1.34,9.38,9.38,0,0,1-1.93,1,6.07,6.07,0,0,1-2.23.4,14.06,14.06,0,0,1-5.76-1.17,13.62,13.62,0,0,1-4.52-3.21,14.56,14.56,0,0,1-3-4.79,16.31,16.31,0,0,1-1.07-5.93,16.28,16.28,0,0,1,1.07-5.94,14.72,14.72,0,0,1,3-4.78,13.56,13.56,0,0,1,4.52-3.19,14.22,14.22,0,0,1,5.76-1.16,6.83,6.83,0,0,1,2.31.37,8.69,8.69,0,0,1,1.91.94,9.85,9.85,0,0,1,1.58,1.3c.49.48.94,1,1.37,1.41V2a1.79,1.79,0,0,1,.45-1.24,1.7,1.7,0,0,1,1.34-.51h5.17a1.74,1.74,0,0,1,.64.13,2.19,2.19,0,0,1,.61.35,1.85,1.85,0,0,1,.44.56,1.41,1.41,0,0,1,.18.71V36.36c0,1.18-.62,1.77-1.87,1.77h-4.5a1.88,1.88,0,0,1-.71-.11,1.27,1.27,0,0,1-.43-.33,2.35,2.35,0,0,1-.31-.56c-.11-.25-.22-.51-.34-.77l-.67-1.79Zm-13.21-11a8.3,8.3,0,0,0,.47,2.84,6.69,6.69,0,0,0,1.34,2.29,6.39,6.39,0,0,0,2.11,1.53,6.52,6.52,0,0,0,2.72.56,7.34,7.34,0,0,0,2.77-.53,6.86,6.86,0,0,0,2.26-1.46,7.16,7.16,0,0,0,1.55-2.19,7.34,7.34,0,0,0,.66-2.71v-.33a7.38,7.38,0,0,0-2.08-5.14,7.33,7.33,0,0,0-2.3-1.6,7,7,0,0,0-2.86-.59,6.2,6.2,0,0,0-2.72.59,6.29,6.29,0,0,0-2.11,1.6,7.09,7.09,0,0,0-1.34,2.34,8.11,8.11,0,0,0-.47,2.8ZM195.81,2a2,2,0,0,1,.37-1.24,1.44,1.44,0,0,1,1.26-.51h5.63a1.12,1.12,0,0,1,.48.13,1.51,1.51,0,0,1,.47.36,1.83,1.83,0,0,1,.37.55,1.64,1.64,0,0,1,.15.71V36.36a1.7,1.7,0,0,1-.49,1.33,1.88,1.88,0,0,1-1.28.44h-5.33a1.56,1.56,0,0,1-1.26-.44,2,2,0,0,1-.37-1.33Zm38.7,32.61A15.23,15.23,0,0,1,230,37.55a13.87,13.87,0,0,1-5.36,1,15.66,15.66,0,0,1-10.87-4.33,15.28,15.28,0,0,1-3.35-4.79,14.42,14.42,0,0,1-1.24-6,15.48,15.48,0,0,1,.49-3.92A15.71,15.71,0,0,1,211,16a15.34,15.34,0,0,1,2.21-3,14.16,14.16,0,0,1,2.91-2.38A14.32,14.32,0,0,1,219.64,9a14.06,14.06,0,0,1,4-.55,13.88,13.88,0,0,1,3.7.5,14.59,14.59,0,0,1,6.25,3.64,14.92,14.92,0,0,1,2.25,2.81,13.62,13.62,0,0,1,1.46,3.26,12.65,12.65,0,0,1,.52,3.58c0,.79,0,1.44,0,1.95a2.14,2.14,0,0,1-.36,1.21,1.74,1.74,0,0,1-1.06.62,10.88,10.88,0,0,1-2.2.17H217.6a5.65,5.65,0,0,0,.93,2.46,5.77,5.77,0,0,0,1.62,1.57,6.47,6.47,0,0,0,1.95.84,8,8,0,0,0,2,.25,8.38,8.38,0,0,0,1.7-.17,10.81,10.81,0,0,0,1.69-.46,10,10,0,0,0,1.5-.66,5.22,5.22,0,0,0,1.09-.8,4.26,4.26,0,0,1,.63-.45,1.11,1.11,0,0,1,.56-.14,1.16,1.16,0,0,1,.61.2,5,5,0,0,1,.7.6L235,32.23a1.58,1.58,0,0,1,.32.54,1.61,1.61,0,0,1,.07.49,1.31,1.31,0,0,1-.25.79,2.58,2.58,0,0,1-.6.59Zm-11-19.14a4.54,4.54,0,0,0-1.74.35,6.61,6.61,0,0,0-1.57,1,8.94,8.94,0,0,0-1.33,1.35,8.75,8.75,0,0,0-.95,1.54h11.74a12.35,12.35,0,0,0-1-1.65,6.78,6.78,0,0,0-1.29-1.33,5.53,5.53,0,0,0-1.65-.9A6.52,6.52,0,0,0,223.46,15.5Z" transform="translate(-1.22 -0.26)" style="fill:#edf3f4"/></svg>